<svg width="32" height="25" viewBox="0 0 32 25" fill="none" xmlns="http://www.w3.org/2000/svg">
<path d="M20.316 2.10675H11.6562V17.5902H20.316V2.10675Z" fill="#FB8C00"/>
<path d="M12.2337 9.84848C12.2337 6.70271 13.7197 3.91071 15.9999 2.10675C14.3218 0.793616 12.2049 0 9.89589 0C4.42593 0 0 4.40473 0 9.84848C0 15.2922 4.42593 19.697 9.89589 19.697C12.2049 19.697 14.3218 18.9034 15.9999 17.5902C13.7165 15.8118 12.2337 12.9943 12.2337 9.84848Z" fill="#E91F63"/>
<path d="M31.9999 9.84848C31.9999 15.2922 27.574 19.697 22.1041 19.697C19.795 19.697 17.6781 18.9034 16 17.5902C18.309 15.7831 19.7662 12.9943 19.7662 9.84848C19.7662 6.70271 18.2802 3.91071 16 2.10675C17.6749 0.793616 19.7918 0 22.1009 0C27.574 0 31.9999 4.43341 31.9999 9.84848Z" fill="#FB8C00"/>
<path d="M5.79981 24.9453V23.2861C5.79981 22.6514 5.41551 22.2358 4.75578 22.2358C4.42591 22.2358 4.06723 22.3454 3.82063 22.7062C3.62848 22.4034 3.35306 22.2358 2.93992 22.2358C2.6645 22.2358 2.38908 22.3196 2.17131 22.6224V22.2906H1.59485V24.9453H2.17131V23.4794C2.17131 23.009 2.41791 22.7867 2.80221 22.7867C3.18652 22.7867 3.37868 23.0348 3.37868 23.4794V24.9453H3.95514V23.4794C3.95514 23.009 4.23056 22.7867 4.58604 22.7867C4.97035 22.7867 5.1625 23.0348 5.1625 23.4794V24.9453H5.79981ZM14.3507 22.2906H13.4155V21.4884H12.839V22.2906H12.317V22.8157H12.839V24.0335C12.839 24.6424 13.0856 25 13.7454 25C13.992 25 14.2674 24.9163 14.4595 24.8067L14.293 24.3074C14.1265 24.4169 13.9343 24.4459 13.7966 24.4459C13.5212 24.4459 13.4123 24.2784 13.4123 24.0045V22.8157H14.3475V22.2906H14.3507ZM19.2442 22.2326C18.9143 22.2326 18.6933 22.4002 18.5556 22.6192V22.2874H17.9792V24.942H18.5556V23.4472C18.5556 23.0058 18.7478 22.7545 19.1065 22.7545C19.2153 22.7545 19.3531 22.7835 19.4651 22.8093L19.6317 22.2552C19.5164 22.2326 19.3531 22.2326 19.2442 22.2326ZM11.8495 22.5097C11.574 22.3164 11.1897 22.2326 10.7766 22.2326C10.1169 22.2326 9.67812 22.5645 9.67812 23.0896C9.67812 23.531 10.008 23.7822 10.5844 23.8628L10.8599 23.8918C11.1609 23.9465 11.3274 24.0303 11.3274 24.1688C11.3274 24.3621 11.1065 24.5007 10.7222 24.5007C10.3378 24.5007 10.0336 24.3621 9.84145 24.2236L9.56603 24.665C9.86707 24.8873 10.2802 24.9968 10.6933 24.9968C11.4619 24.9968 11.9039 24.636 11.9039 24.1398C11.9039 23.6695 11.5452 23.4214 10.9976 23.3377L10.7222 23.3087C10.4756 23.2797 10.2834 23.2249 10.2834 23.0606C10.2834 22.8673 10.4756 22.7578 10.7798 22.7578C11.1097 22.7578 11.4395 22.8963 11.6061 22.98L11.8495 22.5097ZM27.1865 22.2326C26.8567 22.2326 26.6357 22.4002 26.498 22.6192V22.2874H25.9215V24.942H26.498V23.4472C26.498 23.0058 26.6901 22.7545 27.0488 22.7545C27.1577 22.7545 27.2954 22.7835 27.4075 22.8093L27.574 22.2616C27.4619 22.2326 27.2986 22.2326 27.1865 22.2326ZM19.8206 23.6179C19.8206 24.4201 20.3715 25 21.2234 25C21.6077 25 21.8831 24.9163 22.1585 24.6972L21.8831 24.2268C21.6621 24.3944 21.4443 24.4749 21.1945 24.4749C20.727 24.4749 20.3971 24.1431 20.3971 23.6179C20.3971 23.1186 20.727 22.7867 21.1945 22.761C21.4411 22.761 21.6621 22.8447 21.8831 23.009L22.1585 22.5387C21.8831 22.3164 21.6077 22.2358 21.2234 22.2358C20.3715 22.2326 19.8206 22.8157 19.8206 23.6179ZM25.1529 23.6179V22.2906H24.5764V22.6224C24.3843 22.3744 24.1089 22.2358 23.7502 22.2358C23.0072 22.2358 22.4307 22.8157 22.4307 23.6179C22.4307 24.4201 23.0072 25 23.7502 25C24.1345 25 24.4099 24.8615 24.5764 24.6134V24.9453H25.1529V23.6179ZM23.036 23.6179C23.036 23.1476 23.337 22.761 23.8334 22.761C24.301 22.761 24.6309 23.1218 24.6309 23.6179C24.6309 24.0883 24.301 24.4749 23.8334 24.4749C23.3402 24.4459 23.036 24.0851 23.036 23.6179ZM16.1377 22.2326C15.3691 22.2326 14.8182 22.7867 14.8182 23.6147C14.8182 24.4459 15.3691 24.9968 16.1665 24.9968C16.5508 24.9968 16.9351 24.8873 17.2394 24.636L16.9639 24.2204C16.743 24.3879 16.4675 24.4974 16.1953 24.4974C15.8366 24.4974 15.4812 24.3299 15.3979 23.8628H17.3483C17.3483 23.779 17.3483 23.7242 17.3483 23.6405C17.3739 22.7867 16.8775 22.2326 16.1377 22.2326ZM16.1377 22.732C16.4964 22.732 16.743 22.9543 16.7974 23.3666H15.4235C15.478 23.009 15.7246 22.732 16.1377 22.732ZM30.4595 23.6179V21.2404H29.8831V22.6224C29.6909 22.3744 29.4155 22.2358 29.0568 22.2358C28.3138 22.2358 27.7374 22.8157 27.7374 23.6179C27.7374 24.4201 28.3138 25 29.0568 25C29.4411 25 29.7165 24.8615 29.8831 24.6134V24.9453H30.4595V23.6179ZM28.3426 23.6179C28.3426 23.1476 28.6437 22.761 29.1401 22.761C29.6077 22.761 29.9375 23.1218 29.9375 23.6179C29.9375 24.0883 29.6077 24.4749 29.1401 24.4749C28.6437 24.4459 28.3426 24.0851 28.3426 23.6179ZM9.04401 23.6179V22.2906H8.46755V22.6224C8.27539 22.3744 7.99997 22.2358 7.64129 22.2358C6.89829 22.2358 6.32183 22.8157 6.32183 23.6179C6.32183 24.4201 6.89829 25 7.64129 25C8.02559 25 8.30101 24.8615 8.46755 24.6134V24.9453H9.04401V23.6179ZM6.90149 23.6179C6.90149 23.1476 7.20254 22.761 7.69893 22.761C8.16651 22.761 8.49637 23.1218 8.49637 23.6179C8.49637 24.0883 8.16651 24.4749 7.69893 24.4749C7.20254 24.4459 6.90149 24.0851 6.90149 23.6179Z" fill="#191919"/>
</svg>
