<svg width="28" height="28" viewBox="0 0 28 28" fill="none" xmlns="http://www.w3.org/2000/svg">
<path d="M11.6379 19.2268C11.4579 19.0816 11.2139 19 10.9594 19C10.705 19 10.4609 19.0816 10.281 19.2268C10.1011 19.3721 10 19.5691 10 19.7745C10 19.9799 10.1011 20.1769 10.281 20.3221L13.3158 22.7683C13.404 22.8416 13.5094 22.8999 13.626 22.9397C13.7425 22.9795 13.8677 23 13.9943 23C14.1208 23 14.2461 22.9795 14.3626 22.9397C14.4791 22.8999 14.5846 22.8416 14.6727 22.7683L17.703 20.3221C17.8829 20.1769 17.984 19.9799 17.984 19.7745C17.984 19.5691 17.8829 19.3721 17.703 19.2268C17.5231 19.0816 17.279 19 17.0246 19C16.7701 19 16.5261 19.0816 16.3462 19.2268L13.9988 21.1181L11.6379 19.2268Z" fill="white"/>
<path d="M23.5611 8.77306C23.6387 8.84417 23.7307 8.90046 23.8319 8.9387C23.9331 8.97693 24.0415 8.99636 24.1508 8.99588C24.2596 8.99648 24.3674 8.97708 24.468 8.93883C24.5685 8.90058 24.6599 8.84422 24.7366 8.77306C24.8155 8.70165 24.8783 8.61641 24.9211 8.52233C24.964 8.42826 24.986 8.32724 24.986 8.2252C24.986 8.12315 24.964 8.02215 24.9211 7.92808C24.8783 7.834 24.8155 7.74875 24.7366 7.67733L22.0849 5.23022C22.0075 5.15733 21.9151 5.09941 21.8132 5.05988C21.7113 5.02035 21.6018 5 21.4912 5C21.3807 5 21.2712 5.02035 21.1693 5.05988C21.0673 5.09941 20.975 5.15733 20.8976 5.23022L18.2459 7.67733C18.0885 7.82263 18 8.01971 18 8.2252C18 8.43068 18.0885 8.62776 18.2459 8.77306C18.4034 8.91836 18.6169 9 18.8396 9C19.0622 9 19.2758 8.91836 19.4332 8.77306L21.4992 6.8665L23.5611 8.77306Z" fill="white"/>
<path d="M9.56114 8.77306C9.63872 8.84417 9.73073 8.90046 9.83192 8.9387C9.93312 8.97693 10.0415 8.99636 10.1508 8.99588C10.2596 8.99648 10.3674 8.97708 10.468 8.93883C10.5685 8.90058 10.6599 8.84422 10.7366 8.77306C10.8155 8.70165 10.8783 8.61641 10.9211 8.52233C10.964 8.42826 10.986 8.32724 10.986 8.2252C10.986 8.12315 10.964 8.02215 10.9211 7.92808C10.8783 7.834 10.8155 7.74875 10.7366 7.67733L8.08489 5.23022C8.0075 5.15733 7.91514 5.09941 7.8132 5.05988C7.71126 5.02035 7.6018 5 7.49123 5C7.38065 5 7.27121 5.02035 7.16927 5.05988C7.06734 5.09941 6.97495 5.15733 6.89757 5.23022L4.24591 7.67733C4.08846 7.82263 4 8.01971 4 8.2252C4 8.43068 4.08846 8.62776 4.24591 8.77306C4.40336 8.91836 4.6169 9 4.83957 9C5.06223 9 5.27578 8.91836 5.43323 8.77306L7.49915 6.8665L9.56114 8.77306Z" fill="white"/>
<path d="M26.519 0H1.42516C1.04718 0 0.684676 0.150462 0.417407 0.418265C0.150138 0.686068 0 1.0493 0 1.42803V13.4004C0 13.7791 0.150138 14.1424 0.417407 14.4102C0.684676 14.678 1.04718 14.8284 1.42516 14.8284H6.57463V26.572C6.57463 26.9507 6.72477 27.3139 6.99204 27.5817C7.2593 27.8495 7.62181 28 7.99979 28H19.9483C20.1352 28 20.3204 27.963 20.4931 27.8912C20.6657 27.8194 20.8226 27.7141 20.9546 27.5815C21.0866 27.4488 21.1912 27.2914 21.2624 27.1182C21.3336 26.9449 21.37 26.7593 21.3695 26.572V14.8284H26.519C26.8969 14.8284 27.2594 14.678 27.5267 14.4102C27.794 14.1424 27.9441 13.7791 27.9441 13.4004V1.42803C27.9441 1.0493 27.794 0.686068 27.5267 0.418265C27.2594 0.150462 26.8969 0 26.519 0V0ZM1.6535 1.65681H13.1453V13.1716H1.6535V1.65681ZM19.7199 26.3432H8.22419V14.8284H19.7199V26.3432ZM26.2985 13.1716H14.7988V1.65681H26.2985V13.1716Z" fill="white"/>
</svg>
