<svg width="32" height="12" viewBox="0 0 32 12" fill="none" xmlns="http://www.w3.org/2000/svg">
<g clip-path="url(#clip0_26_44)">
<path d="M13.8666 11.0288H11.2744L12.8958 0.761841H15.4879L13.8666 11.0288Z" fill="#00579F"/>
<path d="M23.2637 1.01285C22.7524 0.805112 21.9414 0.575745 20.9387 0.575745C18.3788 0.575745 16.5761 1.97372 16.565 3.97241C16.5438 5.44704 17.8557 6.26609 18.8369 6.75778C19.8398 7.26021 20.1807 7.58815 20.1807 8.03599C20.1705 8.7238 19.3703 9.04086 18.624 9.04086C17.5891 9.04086 17.0345 8.87739 16.1918 8.49473L15.8505 8.33069L15.4877 10.6354C16.0957 10.9191 17.2158 11.1708 18.3788 11.1818C21.0987 11.1818 22.8695 9.80546 22.8905 7.67554C22.9008 6.50678 22.2081 5.61123 20.7146 4.87943C19.8079 4.40967 19.2527 4.09291 19.2527 3.61225C19.2633 3.17529 19.7223 2.72773 20.7458 2.72773C21.5885 2.70581 22.2076 2.91326 22.6767 3.12085L22.9112 3.22987L23.2637 1.01285Z" fill="#00579F"/>
<path d="M26.709 7.39157C26.9224 6.80175 27.7439 4.51897 27.7439 4.51897C27.7331 4.54089 27.9569 3.91826 28.0849 3.53602L28.2661 4.42069C28.2661 4.42069 28.757 6.87826 28.8636 7.39157C28.4585 7.39157 27.221 7.39157 26.709 7.39157ZM29.9087 0.761841H27.9036C27.2853 0.761841 26.8156 0.947367 26.5488 1.61369L22.6984 11.0286H25.4183C25.4183 11.0286 25.8661 9.76146 25.9624 9.48854C26.2607 9.48854 28.9067 9.48854 29.2906 9.48854C29.365 9.849 29.5999 11.0286 29.5999 11.0286H32L29.9087 0.761841Z" fill="#00579F"/>
<path d="M9.10927 0.761841L6.57062 7.76292L6.29321 6.34302C5.82387 4.70464 4.35192 2.92457 2.70929 2.03948L5.0346 11.0179H7.7758L11.8503 0.761841H9.10927Z" fill="#00579F"/>
<path d="M4.2133 0.761841H0.0426673L0 0.969288C3.25336 1.82129 5.40799 3.87499 6.29323 6.34345L5.38659 1.62487C5.23732 0.969142 4.77861 0.783471 4.2133 0.761841Z" fill="#FB8C00"/>
</g>
<defs>
<clipPath id="clip0_26_44">
<rect width="32" height="10.6061" fill="white" transform="translate(0 0.575745)"/>
</clipPath>
</defs>
</svg>
